<mxfile host="app.diagrams.net" modified="2024-07-11T01:41:53.776Z" agent="Mozilla/5.0 (Windows NT 10.0; Win64; x64) AppleWebKit/537.36 (KHTML, like Gecko) Chrome/126.0.0.0 Safari/537.36" etag="GzR2xOfWmHheZbx82FU3" version="24.6.4" type="device">
  <diagram id="C5RBs43oDa-KdzZeNtuy" name="Page-1">
    <mxGraphModel dx="2416" dy="2005" grid="1" gridSize="10" guides="1" tooltips="1" connect="1" arrows="1" fold="1" page="1" pageScale="1" pageWidth="827" pageHeight="1169" math="0" shadow="0">
      <root>
        <mxCell id="WIyWlLk6GJQsqaUBKTNV-0" />
        <mxCell id="WIyWlLk6GJQsqaUBKTNV-1" parent="WIyWlLk6GJQsqaUBKTNV-0" />
        <mxCell id="SPUMbUnx-Ebr7qsUmm7e-44" style="edgeStyle=orthogonalEdgeStyle;rounded=0;orthogonalLoop=1;jettySize=auto;html=1;" edge="1" parent="WIyWlLk6GJQsqaUBKTNV-1" source="WIyWlLk6GJQsqaUBKTNV-3" target="WIyWlLk6GJQsqaUBKTNV-7">
          <mxGeometry relative="1" as="geometry" />
        </mxCell>
        <mxCell id="WIyWlLk6GJQsqaUBKTNV-3" value="Register" style="rounded=1;whiteSpace=wrap;html=1;fontSize=12;glass=0;strokeWidth=1;shadow=0;" parent="WIyWlLk6GJQsqaUBKTNV-1" vertex="1">
          <mxGeometry x="120" y="-10" width="120" height="40" as="geometry" />
        </mxCell>
        <mxCell id="SPUMbUnx-Ebr7qsUmm7e-42" value="Yes" style="edgeStyle=orthogonalEdgeStyle;rounded=0;orthogonalLoop=1;jettySize=auto;html=1;exitX=0;exitY=0;exitDx=0;exitDy=0;entryX=1;entryY=0.5;entryDx=0;entryDy=0;" edge="1" parent="WIyWlLk6GJQsqaUBKTNV-1" source="WIyWlLk6GJQsqaUBKTNV-6" target="WIyWlLk6GJQsqaUBKTNV-3">
          <mxGeometry relative="1" as="geometry" />
        </mxCell>
        <mxCell id="WIyWlLk6GJQsqaUBKTNV-6" value="New user?" style="rhombus;whiteSpace=wrap;html=1;shadow=0;fontFamily=Helvetica;fontSize=12;align=center;strokeWidth=1;spacing=6;spacingTop=-4;" parent="WIyWlLk6GJQsqaUBKTNV-1" vertex="1">
          <mxGeometry x="374" y="60" width="100" height="80" as="geometry" />
        </mxCell>
        <mxCell id="SPUMbUnx-Ebr7qsUmm7e-26" style="edgeStyle=orthogonalEdgeStyle;rounded=0;orthogonalLoop=1;jettySize=auto;html=1;exitX=0.5;exitY=1;exitDx=0;exitDy=0;" edge="1" parent="WIyWlLk6GJQsqaUBKTNV-1" source="WIyWlLk6GJQsqaUBKTNV-7" target="SPUMbUnx-Ebr7qsUmm7e-5">
          <mxGeometry relative="1" as="geometry">
            <mxPoint x="180" y="319.9999999999998" as="sourcePoint" />
          </mxGeometry>
        </mxCell>
        <mxCell id="WIyWlLk6GJQsqaUBKTNV-7" value="Login" style="rounded=1;whiteSpace=wrap;html=1;fontSize=12;glass=0;strokeWidth=1;shadow=0;" parent="WIyWlLk6GJQsqaUBKTNV-1" vertex="1">
          <mxGeometry x="115" y="100" width="130" height="50" as="geometry" />
        </mxCell>
        <mxCell id="SPUMbUnx-Ebr7qsUmm7e-1" style="edgeStyle=orthogonalEdgeStyle;rounded=0;orthogonalLoop=1;jettySize=auto;html=1;entryX=0.5;entryY=0;entryDx=0;entryDy=0;" edge="1" parent="WIyWlLk6GJQsqaUBKTNV-1" source="SPUMbUnx-Ebr7qsUmm7e-0" target="WIyWlLk6GJQsqaUBKTNV-6">
          <mxGeometry relative="1" as="geometry" />
        </mxCell>
        <mxCell id="SPUMbUnx-Ebr7qsUmm7e-0" value="Open App" style="ellipse;whiteSpace=wrap;html=1;" vertex="1" parent="WIyWlLk6GJQsqaUBKTNV-1">
          <mxGeometry x="364" y="-70" width="120" height="80" as="geometry" />
        </mxCell>
        <mxCell id="SPUMbUnx-Ebr7qsUmm7e-60" value="Logout" style="edgeStyle=none;rounded=0;orthogonalLoop=1;jettySize=auto;html=1;entryX=0;entryY=0.5;entryDx=0;entryDy=0;exitX=0;exitY=0;exitDx=0;exitDy=0;" edge="1" parent="WIyWlLk6GJQsqaUBKTNV-1" source="SPUMbUnx-Ebr7qsUmm7e-5" target="SPUMbUnx-Ebr7qsUmm7e-0">
          <mxGeometry relative="1" as="geometry">
            <Array as="points">
              <mxPoint y="240" />
              <mxPoint y="130" />
              <mxPoint y="50" />
              <mxPoint y="-30" />
            </Array>
          </mxGeometry>
        </mxCell>
        <mxCell id="SPUMbUnx-Ebr7qsUmm7e-5" value="Dashboard" style="whiteSpace=wrap;html=1;rounded=1;glass=0;strokeWidth=1;shadow=0;" vertex="1" parent="WIyWlLk6GJQsqaUBKTNV-1">
          <mxGeometry x="122.5" y="370" width="115" height="50" as="geometry" />
        </mxCell>
        <mxCell id="SPUMbUnx-Ebr7qsUmm7e-45" value="Filter" style="edgeStyle=orthogonalEdgeStyle;rounded=0;orthogonalLoop=1;jettySize=auto;html=1;exitX=1;exitY=0;exitDx=0;exitDy=0;entryX=1;entryY=0.5;entryDx=0;entryDy=0;" edge="1" parent="WIyWlLk6GJQsqaUBKTNV-1">
          <mxGeometry x="0.0413" relative="1" as="geometry">
            <mxPoint x="534" y="392.5" as="targetPoint" />
            <mxPoint x="534" y="365" as="sourcePoint" />
            <Array as="points">
              <mxPoint x="539" y="365.5" />
              <mxPoint x="539" y="345.5" />
              <mxPoint x="640" y="345.5" />
              <mxPoint x="640" y="392.5" />
            </Array>
            <mxPoint as="offset" />
          </mxGeometry>
        </mxCell>
        <mxCell id="SPUMbUnx-Ebr7qsUmm7e-7" value="View animals list" style="whiteSpace=wrap;html=1;rounded=1;glass=0;strokeWidth=1;shadow=0;" vertex="1" parent="WIyWlLk6GJQsqaUBKTNV-1">
          <mxGeometry x="429" y="365" width="110" height="55" as="geometry" />
        </mxCell>
        <mxCell id="SPUMbUnx-Ebr7qsUmm7e-66" value="Like pet" style="edgeStyle=none;rounded=0;orthogonalLoop=1;jettySize=auto;html=1;exitX=0;exitY=0.5;exitDx=0;exitDy=0;entryX=1;entryY=0.5;entryDx=0;entryDy=0;" edge="1" parent="WIyWlLk6GJQsqaUBKTNV-1" source="SPUMbUnx-Ebr7qsUmm7e-13" target="SPUMbUnx-Ebr7qsUmm7e-33">
          <mxGeometry relative="1" as="geometry">
            <mxPoint x="310.00000000000045" y="655" as="targetPoint" />
          </mxGeometry>
        </mxCell>
        <mxCell id="SPUMbUnx-Ebr7qsUmm7e-74" value="" style="edgeStyle=none;rounded=0;orthogonalLoop=1;jettySize=auto;html=1;" edge="1" parent="WIyWlLk6GJQsqaUBKTNV-1" source="SPUMbUnx-Ebr7qsUmm7e-13" target="SPUMbUnx-Ebr7qsUmm7e-73">
          <mxGeometry relative="1" as="geometry" />
        </mxCell>
        <mxCell id="SPUMbUnx-Ebr7qsUmm7e-79" value="Like pet" style="edgeStyle=none;rounded=0;orthogonalLoop=1;jettySize=auto;html=1;exitX=0.5;exitY=1;exitDx=0;exitDy=0;entryX=0.5;entryY=1;entryDx=0;entryDy=0;" edge="1" parent="WIyWlLk6GJQsqaUBKTNV-1" source="SPUMbUnx-Ebr7qsUmm7e-13" target="SPUMbUnx-Ebr7qsUmm7e-77">
          <mxGeometry relative="1" as="geometry">
            <Array as="points">
              <mxPoint x="480" y="780" />
              <mxPoint x="-50" y="780" />
            </Array>
          </mxGeometry>
        </mxCell>
        <mxCell id="SPUMbUnx-Ebr7qsUmm7e-13" value="See details" style="whiteSpace=wrap;html=1;rounded=1;glass=0;strokeWidth=1;shadow=0;" vertex="1" parent="WIyWlLk6GJQsqaUBKTNV-1">
          <mxGeometry x="429" y="627.5" width="110" height="55" as="geometry" />
        </mxCell>
        <mxCell id="SPUMbUnx-Ebr7qsUmm7e-69" value="Update" style="edgeStyle=none;rounded=0;orthogonalLoop=1;jettySize=auto;html=1;exitX=0;exitY=0;exitDx=0;exitDy=0;entryX=0;entryY=0.75;entryDx=0;entryDy=0;" edge="1" parent="WIyWlLk6GJQsqaUBKTNV-1" source="SPUMbUnx-Ebr7qsUmm7e-28" target="SPUMbUnx-Ebr7qsUmm7e-28">
          <mxGeometry relative="1" as="geometry">
            <mxPoint x="-110" y="417.5" as="targetPoint" />
            <mxPoint x="-110" y="367.5" as="sourcePoint" />
            <Array as="points">
              <mxPoint x="-210" y="370" />
              <mxPoint x="-210" y="407.5" />
            </Array>
          </mxGeometry>
        </mxCell>
        <mxCell id="SPUMbUnx-Ebr7qsUmm7e-28" value="Profile" style="whiteSpace=wrap;html=1;rounded=1;glass=0;strokeWidth=1;shadow=0;" vertex="1" parent="WIyWlLk6GJQsqaUBKTNV-1">
          <mxGeometry x="-110" y="370" width="120" height="50" as="geometry" />
        </mxCell>
        <mxCell id="SPUMbUnx-Ebr7qsUmm7e-71" style="edgeStyle=none;rounded=0;orthogonalLoop=1;jettySize=auto;html=1;exitX=1;exitY=0;exitDx=0;exitDy=0;entryX=0;entryY=1;entryDx=0;entryDy=0;" edge="1" parent="WIyWlLk6GJQsqaUBKTNV-1" source="SPUMbUnx-Ebr7qsUmm7e-33" target="SPUMbUnx-Ebr7qsUmm7e-7">
          <mxGeometry relative="1" as="geometry">
            <mxPoint x="310.00000000000045" y="630" as="sourcePoint" />
          </mxGeometry>
        </mxCell>
        <mxCell id="SPUMbUnx-Ebr7qsUmm7e-33" value="My liked pets" style="whiteSpace=wrap;html=1;rounded=1;glass=0;strokeWidth=1;shadow=0;" vertex="1" parent="WIyWlLk6GJQsqaUBKTNV-1">
          <mxGeometry x="120" y="632.5" width="110" height="50" as="geometry" />
        </mxCell>
        <mxCell id="SPUMbUnx-Ebr7qsUmm7e-43" value="No" style="edgeStyle=orthogonalEdgeStyle;rounded=0;orthogonalLoop=1;jettySize=auto;html=1;exitX=0;exitY=1;exitDx=0;exitDy=0;entryX=0.992;entryY=0.64;entryDx=0;entryDy=0;entryPerimeter=0;" edge="1" parent="WIyWlLk6GJQsqaUBKTNV-1" source="WIyWlLk6GJQsqaUBKTNV-6" target="WIyWlLk6GJQsqaUBKTNV-7">
          <mxGeometry relative="1" as="geometry" />
        </mxCell>
        <mxCell id="SPUMbUnx-Ebr7qsUmm7e-57" value="" style="endArrow=classic;startArrow=classic;html=1;rounded=0;" edge="1" parent="WIyWlLk6GJQsqaUBKTNV-1" source="SPUMbUnx-Ebr7qsUmm7e-7" target="SPUMbUnx-Ebr7qsUmm7e-13">
          <mxGeometry width="50" height="50" relative="1" as="geometry">
            <mxPoint x="540" y="427.5" as="sourcePoint" />
            <mxPoint x="630" y="447.5" as="targetPoint" />
          </mxGeometry>
        </mxCell>
        <mxCell id="SPUMbUnx-Ebr7qsUmm7e-59" value="" style="endArrow=classic;startArrow=classic;html=1;rounded=0;entryX=0;entryY=0.5;entryDx=0;entryDy=0;exitX=1;exitY=0.5;exitDx=0;exitDy=0;" edge="1" parent="WIyWlLk6GJQsqaUBKTNV-1" source="SPUMbUnx-Ebr7qsUmm7e-5" target="SPUMbUnx-Ebr7qsUmm7e-7">
          <mxGeometry width="50" height="50" relative="1" as="geometry">
            <mxPoint x="317.50000000000045" y="392.5" as="sourcePoint" />
            <mxPoint x="400" y="377.5" as="targetPoint" />
          </mxGeometry>
        </mxCell>
        <mxCell id="SPUMbUnx-Ebr7qsUmm7e-61" value="" style="endArrow=classic;startArrow=classic;html=1;rounded=0;exitX=0.5;exitY=0;exitDx=0;exitDy=0;" edge="1" parent="WIyWlLk6GJQsqaUBKTNV-1" source="SPUMbUnx-Ebr7qsUmm7e-33">
          <mxGeometry width="50" height="50" relative="1" as="geometry">
            <mxPoint x="130" y="470" as="sourcePoint" />
            <mxPoint x="180" y="420" as="targetPoint" />
          </mxGeometry>
        </mxCell>
        <mxCell id="SPUMbUnx-Ebr7qsUmm7e-68" value="" style="endArrow=classic;startArrow=classic;html=1;rounded=0;entryX=0;entryY=0.5;entryDx=0;entryDy=0;exitX=1;exitY=0.5;exitDx=0;exitDy=0;" edge="1" parent="WIyWlLk6GJQsqaUBKTNV-1" source="SPUMbUnx-Ebr7qsUmm7e-28" target="SPUMbUnx-Ebr7qsUmm7e-5">
          <mxGeometry width="50" height="50" relative="1" as="geometry">
            <mxPoint x="10" y="400" as="sourcePoint" />
            <mxPoint x="60" y="350" as="targetPoint" />
          </mxGeometry>
        </mxCell>
        <mxCell id="SPUMbUnx-Ebr7qsUmm7e-80" style="edgeStyle=none;rounded=0;orthogonalLoop=1;jettySize=auto;html=1;entryX=0;entryY=0.5;entryDx=0;entryDy=0;" edge="1" parent="WIyWlLk6GJQsqaUBKTNV-1" source="SPUMbUnx-Ebr7qsUmm7e-73" target="SPUMbUnx-Ebr7qsUmm7e-77">
          <mxGeometry relative="1" as="geometry">
            <mxPoint x="640" y="930" as="targetPoint" />
            <Array as="points">
              <mxPoint x="674" y="850" />
              <mxPoint x="-200" y="850" />
              <mxPoint x="-200" y="565" />
            </Array>
          </mxGeometry>
        </mxCell>
        <mxCell id="SPUMbUnx-Ebr7qsUmm7e-82" value="" style="edgeStyle=none;rounded=0;orthogonalLoop=1;jettySize=auto;html=1;" edge="1" parent="WIyWlLk6GJQsqaUBKTNV-1" source="SPUMbUnx-Ebr7qsUmm7e-73" target="SPUMbUnx-Ebr7qsUmm7e-81">
          <mxGeometry relative="1" as="geometry" />
        </mxCell>
        <mxCell id="SPUMbUnx-Ebr7qsUmm7e-73" value="Adopt pet" style="whiteSpace=wrap;html=1;rounded=1;glass=0;strokeWidth=1;shadow=0;" vertex="1" parent="WIyWlLk6GJQsqaUBKTNV-1">
          <mxGeometry x="619" y="627.5" width="110" height="55" as="geometry" />
        </mxCell>
        <mxCell id="SPUMbUnx-Ebr7qsUmm7e-77" value="Notifications" style="whiteSpace=wrap;html=1;rounded=1;glass=0;strokeWidth=1;shadow=0;" vertex="1" parent="WIyWlLk6GJQsqaUBKTNV-1">
          <mxGeometry x="-107.5" y="540" width="115" height="50" as="geometry" />
        </mxCell>
        <mxCell id="SPUMbUnx-Ebr7qsUmm7e-81" value="My adoptions" style="whiteSpace=wrap;html=1;rounded=1;glass=0;strokeWidth=1;shadow=0;" vertex="1" parent="WIyWlLk6GJQsqaUBKTNV-1">
          <mxGeometry x="619" y="492.5" width="110" height="55" as="geometry" />
        </mxCell>
        <mxCell id="SPUMbUnx-Ebr7qsUmm7e-84" value="" style="endArrow=classic;startArrow=classic;html=1;rounded=0;exitX=1;exitY=1;exitDx=0;exitDy=0;" edge="1" parent="WIyWlLk6GJQsqaUBKTNV-1" source="SPUMbUnx-Ebr7qsUmm7e-5">
          <mxGeometry width="50" height="50" relative="1" as="geometry">
            <mxPoint x="310" y="420" as="sourcePoint" />
            <mxPoint x="619" y="492.5" as="targetPoint" />
          </mxGeometry>
        </mxCell>
        <mxCell id="SPUMbUnx-Ebr7qsUmm7e-88" value="" style="endArrow=classic;startArrow=classic;html=1;rounded=0;exitX=1;exitY=0;exitDx=0;exitDy=0;entryX=0;entryY=1;entryDx=0;entryDy=0;" edge="1" parent="WIyWlLk6GJQsqaUBKTNV-1" source="SPUMbUnx-Ebr7qsUmm7e-5" target="SPUMbUnx-Ebr7qsUmm7e-89">
          <mxGeometry width="50" height="50" relative="1" as="geometry">
            <mxPoint x="317.50000000000045" y="367.5" as="sourcePoint" />
            <mxPoint x="440" y="217.5" as="targetPoint" />
          </mxGeometry>
        </mxCell>
        <mxCell id="SPUMbUnx-Ebr7qsUmm7e-90" style="edgeStyle=none;rounded=0;orthogonalLoop=1;jettySize=auto;html=1;entryX=0.5;entryY=0;entryDx=0;entryDy=0;exitX=0.5;exitY=1;exitDx=0;exitDy=0;" edge="1" parent="WIyWlLk6GJQsqaUBKTNV-1" source="SPUMbUnx-Ebr7qsUmm7e-89" target="SPUMbUnx-Ebr7qsUmm7e-7">
          <mxGeometry relative="1" as="geometry" />
        </mxCell>
        <mxCell id="SPUMbUnx-Ebr7qsUmm7e-89" value="Add pet" style="rounded=1;whiteSpace=wrap;html=1;" vertex="1" parent="WIyWlLk6GJQsqaUBKTNV-1">
          <mxGeometry x="384" y="300" width="80" height="30" as="geometry" />
        </mxCell>
        <mxCell id="SPUMbUnx-Ebr7qsUmm7e-92" value="My pets" style="rounded=1;whiteSpace=wrap;html=1;" vertex="1" parent="WIyWlLk6GJQsqaUBKTNV-1">
          <mxGeometry x="220" y="270" width="96" height="40" as="geometry" />
        </mxCell>
        <mxCell id="SPUMbUnx-Ebr7qsUmm7e-94" value="" style="endArrow=classic;startArrow=classic;html=1;rounded=0;exitX=0.75;exitY=0;exitDx=0;exitDy=0;entryX=0;entryY=0.75;entryDx=0;entryDy=0;" edge="1" parent="WIyWlLk6GJQsqaUBKTNV-1" source="SPUMbUnx-Ebr7qsUmm7e-5" target="SPUMbUnx-Ebr7qsUmm7e-92">
          <mxGeometry width="50" height="50" relative="1" as="geometry">
            <mxPoint x="160" y="380" as="sourcePoint" />
            <mxPoint x="210" y="330" as="targetPoint" />
          </mxGeometry>
        </mxCell>
        <mxCell id="SPUMbUnx-Ebr7qsUmm7e-95" value="" style="endArrow=classic;startArrow=classic;html=1;rounded=0;entryX=1;entryY=0.5;entryDx=0;entryDy=0;exitX=0;exitY=0.5;exitDx=0;exitDy=0;" edge="1" parent="WIyWlLk6GJQsqaUBKTNV-1" source="SPUMbUnx-Ebr7qsUmm7e-89" target="SPUMbUnx-Ebr7qsUmm7e-92">
          <mxGeometry width="50" height="50" relative="1" as="geometry">
            <mxPoint x="160" y="430" as="sourcePoint" />
            <mxPoint x="210" y="380" as="targetPoint" />
          </mxGeometry>
        </mxCell>
        <mxCell id="SPUMbUnx-Ebr7qsUmm7e-96" value="" style="endArrow=classic;startArrow=classic;html=1;rounded=0;exitX=1;exitY=0;exitDx=0;exitDy=0;entryX=0;entryY=1;entryDx=0;entryDy=0;" edge="1" parent="WIyWlLk6GJQsqaUBKTNV-1" source="SPUMbUnx-Ebr7qsUmm7e-77" target="SPUMbUnx-Ebr7qsUmm7e-5">
          <mxGeometry width="50" height="50" relative="1" as="geometry">
            <mxPoint x="400" y="540" as="sourcePoint" />
            <mxPoint x="450" y="490" as="targetPoint" />
          </mxGeometry>
        </mxCell>
      </root>
    </mxGraphModel>
  </diagram>
</mxfile>
